<svg id="Digilocker_Logo" xmlns="http://www.w3.org/2000/svg" width="243.075" height="60.502" viewBox="0 0 243.075 60.502">
  <path id="Path_877" data-name="Path 877" d="M74.325,83.205c-2.534.9-2.528.877-2.528,11.16,0,6.734-.05,8.8-.216,9.009a8.212,8.212,0,0,1-1.253.932c-3.528,2.258-6.308,6.941-6.308,10.626a1.2,1.2,0,0,1-.552,1c-4.318,3.6-5.747,7.43-4.375,11.728,1.5,4.7,4.834,7.088,10.2,7.3l2.419.1.087,2.68c.179,5.569-1.688,5.184,25.153,5.184,24.821,0,23.874.085,25.086-2.23l.4-.762V122.513c0-15.6-.028-17.443-.272-17.687s-1.684-.272-13.272-.272c-9.882,0-13.051-.05-13.209-.208s-.208-2.746-.208-10.594-.05-10.437-.207-10.594c-.324-.324-20.026-.28-20.942.046m24.288.306c-.349.349-.28,18,.072,18.354.426.426,22.626.327,22.626-.1,0-.256-.981-1.1-6.029-5.207-.844-.687-1.866-1.52-2.27-1.854s-1.605-1.3-2.668-2.16-2.5-2.022-3.19-2.592-1.742-1.426-2.334-1.9-1.792-1.448-2.665-2.16c-3.1-2.528-3.273-2.648-3.542-2.379m56.929,4.724c-.392.392-.392,3.559,0,3.951.346.346,4.2.4,4.533.064a5.017,5.017,0,0,0,.208-2.039,5.023,5.023,0,0,0-.208-2.04c-.336-.336-4.187-.281-4.533.064m29.553,0c-.392.392-.392,3.559,0,3.951.346.346,4.2.4,4.533.064a5.017,5.017,0,0,0,.208-2.039,5.023,5.023,0,0,0-.208-2.04c-.336-.336-4.187-.281-4.533.064m68.72-.064c-.356.357-.294,28.543.064,28.9.215.215.681.272,2.235.272,2.654,0,2.506.214,2.506-3.623v-3.08l.81-.9c1-1.111.752-1.388,3.1,3.456,2.169,4.464,1.82,4.148,4.572,4.148,3.066,0,3.1-.026,2.254-1.595-.271-.5-1-1.883-1.63-3.072s-1.571-2.977-2.1-3.975c-2.434-4.587-2.388-3.77-.369-6.482,5-6.715,4.894-6.309,1.675-6.3-2.744,0-2.3-.349-5.713,4.572-.9,1.294-1.83,2.553-2.074,2.8l-.444.444-.045-7.652c-.031-5.3-.1-7.723-.237-7.882a11.593,11.593,0,0,0-4.609-.025M131.629,89.726c-.356.356-.294,26.988.064,27.346.434.434,10.008.387,11.826-.057,5.8-1.418,8.39-5.751,8.372-14.015-.017-7.583-2.516-11.733-7.928-13.164-1.486-.393-11.958-.485-12.334-.109m63.08,0c-.3.3-.3,27.11,0,27.41.354.354,16.275.292,16.631-.064.215-.215.272-.681.272-2.235,0-2.744.583-2.505-6.129-2.505-4.935,0-5.6-.032-5.691-.274-.057-.15-.105-5.189-.105-11.2,0-8.268-.05-10.976-.207-11.133a13.809,13.809,0,0,0-4.771,0m-16.235,2.7a2.424,2.424,0,0,0-.46.956c-.569,1.89-1.515,2.617-2.958,2.273a11.566,11.566,0,0,0-6.55.549c-4.124,2.081-5.164,7.947-2.064,11.633l.478.567-.49.366c-2.445,1.82-2.936,3.774-1.46,5.811.62.857.631.764-.208,1.674a5.228,5.228,0,0,0,.285,7.459c1.178,1.037,1.557,1.088,7.591,1.028l5.357-.053,1.075-.5c3.834-1.771,5.073-7.1,2.352-10.127-1.3-1.442-1.381-1.462-6.77-1.56-4.709-.086-4.726-.088-5.055-.495-.989-1.223-.077-1.925,2.5-1.925,7.173,0,10.717-5.134,7.74-11.215l-.456-.931.429-.271c1.8-1.132,3.2-4.23,2.317-5.112a7.968,7.968,0,0,0-3.658-.131m-36.369,2.217a1.218,1.218,0,0,0,.6.3c1.616.4,3.2,2.886,3.365,5.291a4.637,4.637,0,0,0,.243,1.488,5.759,5.759,0,0,1,0,2.561,6.288,6.288,0,0,0-.247,1.764,6.013,6.013,0,0,1-.261,1.777,1.493,1.493,0,0,0-.272.709A5.629,5.629,0,0,1,141.7,112.1a1.969,1.969,0,0,0-.872.255,7.969,7.969,0,0,1-2.07.149h-1.977V94.315l2.605.074a10.645,10.645,0,0,1,2.721.254M220.24,95.71c-5.017,1.334-7.395,8.362-5.424,16.03a8.616,8.616,0,0,0,12.49,5.189c5.257-2.727,5.819-16.261.829-20a10.313,10.313,0,0,0-7.9-1.216m19.613.1c-3.793,1.229-5.3,4.3-5.32,10.822-.018,7.735,2.487,11.233,8.043,11.233a7.017,7.017,0,0,0,7.4-7.233c0-1.369-.067-1.408-2.441-1.408-2.394,0-2.471.045-2.628,1.546-.319,3.046-3.149,3.913-4.45,1.362-.958-1.877-1-9.237-.06-11.054,1.336-2.585,4.4-1.309,4.4,1.833,0,1.069.132,1.128,2.592,1.128,2.538,0,2.592-.029,2.592-1.4,0-5.231-4.886-8.527-10.125-6.83m37.346-.161c-4.14,1.021-5.873,4.235-5.875,10.9,0,8.046,2.723,11.6,8.64,11.267,3.671-.206,5.708-1.735,6.74-5.054.888-2.858.673-3.189-2.074-3.189-2.213,0-2.506.132-2.506,1.122,0,3.8-4.344,4.047-5.382.3-.883-3.185-.936-3.152,5.037-3.152,5.8,0,5.358.169,5.354-2.065-.015-7.569-3.968-11.6-9.934-10.126m21.2-.076a3.943,3.943,0,0,0-1.955,1.837c-.633,1.122-.835,1.109-1.1-.073-.309-1.372-.389-1.421-2.313-1.421a4.466,4.466,0,0,0-1.88.208c-.3.3-.3,20.716,0,21.015.336.337,4.187.282,4.532-.064.237-.237.272-1.082.276-6.611.006-8.829.3-9.571,3.92-9.832a5.33,5.33,0,0,0,1.563-.267c.319-.252.3-4.1-.024-4.539-.279-.381-2.312-.551-3.019-.253m-142.852.614c-.413.413-.413,20.475,0,20.887.346.346,4.2.4,4.533.064.3-.3.3-20.716,0-21.015-.336-.336-4.187-.281-4.533.064m29.553,0c-.413.413-.413,20.475,0,20.887.346.346,4.2.4,4.533.064.3-.3.3-20.716,0-21.015-.336-.336-4.187-.281-4.533.064m-12.2,3.162c0,.083.3.191.672.241,2.539.34,2.663,5.815.143,6.293a2.3,2.3,0,0,0-.785.286c-.157.124-.266.125-.346,0a1.474,1.474,0,0,0-.752-.278,1.738,1.738,0,0,1-1.453-1.245c-.06-.24-.179-.436-.263-.436a7.054,7.054,0,0,1,0-2.938c.085,0,.2-.2.263-.436a1.737,1.737,0,0,1,1.415-1.242,1.407,1.407,0,0,0,.688-.246c.12-.194.418-.194.418,0m50.55.542a.566.566,0,0,0,.435.173c.954,0,1.875,1.741,2.093,3.956.09.914.208,2.04.262,2.5a2.867,2.867,0,0,1-.08,1.21,7.946,7.946,0,0,0-.256,1.856c-.1,1.815-.9,3.36-1.853,3.55a1.248,1.248,0,0,0-.614.255c-.129.209-1.11.19-1.11-.023,0-.095-.149-.173-.332-.173-.409,0-1.4-.8-1.4-1.139,0-.134-.074-.243-.165-.243s-.219-.292-.284-.648a1.585,1.585,0,0,0-.292-.76,37.006,37.006,0,0,1,.025-7.542c.109-.036.2-.235.2-.442a3.537,3.537,0,0,1,1.685-2.266c.308-.091.561-.227.561-.3,0-.2,1-.168,1.123.036m57.134.389a3.581,3.581,0,0,1,.7,1.253,6.4,6.4,0,0,0,.34.992,2.791,2.791,0,0,1,.157.993v.694h-5.21l.12-.993a4.476,4.476,0,0,1,.249-1.167,2.42,2.42,0,0,0,.242-.653c.362-1.513,2.423-2.191,3.4-1.119m-200.372,4.01a12.469,12.469,0,0,1,7.517,4.9c.471.761.91.908,1.87.626,5.27-1.547,10.447.969,12.044,5.853a2.283,2.283,0,0,0,1.5,1.71c6.6,3.356,5.114,13.647-2.236,15.527-2.128.544-31.977.53-33.948-.016-7.36-2.04-8.735-12.142-2.113-15.52.8-.41.8-.4,1.084-2.7a11.9,11.9,0,0,1,14.285-10.38m.1,12.381a2.183,2.183,0,0,0-.654,3.44c.726.87.718.6.1,2.962-.666,2.524-.644,2.569,1.28,2.569,2.3,0,2.257.079,1.5-2.821l-.489-1.871.6-.718c1.045-1.25,1.066-1.74.126-2.858-.886-1.053-1.591-1.255-2.453-.7m96.722,1.1a1.67,1.67,0,0,1,0,2.5l-.532.532h-3.442c-3.8,0-3.689.029-4.408-1.186-.312-.528-.312-.557,0-1.1.752-1.305.786-1.315,4.795-1.28l3.057.026.53.507" transform="translate(-58.591 -82.937)" fill="#6334fa" fill-rule="evenodd"/>
  <path id="Path_878" data-name="Path 878" d="M184.055,142.5v1.273l-.7-.187c-1.309-.349-2.211.618-2.363,2.533-.206,2.6,1.327,4.378,2.853,3.309.215-.15.384-.189.384-.086s.194.183.432.183h.431v-8.3h-1.036V142.5m112.681,2.876v4.148h1.037v-2.16c0-2.316.192-2.852,1.024-2.852.748,0,.876.406.876,2.778v2.235h1.069l-.06-2.471c-.078-3.264-.813-4.279-2.428-3.353l-.483.277v-2.749h-1.037v4.148M252.785,141.6a.616.616,0,0,0-.085.975.464.464,0,0,0,.823-.126c.33-.616-.156-1.175-.738-.85m-95.172.057c0,.046.5,1.222,1.123,2.615,1.073,2.417,1.123,2.592,1.123,3.891v1.361H160.9v-1.547c0-1.521.017-1.586,1.037-3.84,1.21-2.675,1.2-2.6.488-2.532-.522.052-.587.146-1.333,1.913l-.783,1.86-.785-1.9c-.77-1.867-.794-1.9-1.346-1.9-.309,0-.561.037-.561.083m64.808,1.212c0,.714-.035.778-.432.778-.345,0-.432.086-.432.431s.087.432.432.432h.432v2.247c0,2.574.189,3.008,1.263,2.9.735-.071.955-1,.236-1-.57,0-.635-.243-.635-2.347v-1.8h.519c.437,0,.518-.067.518-.432s-.081-.431-.518-.431c-.5,0-.519-.029-.519-.778,0-.714-.036-.777-.432-.777s-.432.063-.432.777m26.961,0c0,.714-.035.778-.432.778-.345,0-.432.086-.432.431s.087.432.432.432h.432v2.247c0,2.574.189,3.008,1.263,2.9.735-.071.955-1,.236-1-.57,0-.635-.243-.635-2.347v-1.8h.518c.437,0,.518-.067.518-.432s-.081-.431-.518-.431c-.5,0-.518-.029-.518-.778,0-.714-.036-.777-.432-.777s-.432.063-.432.777m-84.912,1.12a3.327,3.327,0,0,0-.934,3.061c.3,3.827,4.445,3.395,4.445-.465,0-2.493-1.97-3.949-3.511-2.6m11.918-.395a1.734,1.734,0,0,1-.806.079l-.687-.041v5.89h1.037v-2.148c0-2.334.127-2.691.963-2.691.365,0,.42-.08.42-.606,0-.592-.538-.874-.927-.484m11.068.395a3.327,3.327,0,0,0-.935,3.061c.3,3.827,4.445,3.395,4.445-.465,0-2.493-1.969-3.949-3.51-2.6m5.89-.244c-1.452.788-1.573,4.509-.181,5.6a2.093,2.093,0,0,0,3.16-1.537c0-.361-.846-.2-1.057.2-.445.845-1.388.917-1.79.138a4.086,4.086,0,0,1,.094-3.183.936.936,0,0,1,1.716.466c0,.206.149.29.518.29.606,0,.659-.257.236-1.148a1.919,1.919,0,0,0-2.7-.829m11.1-.1a1.693,1.693,0,0,1-.907.062l-.648-.1v5.92h1.037V147.3c0-2.392.143-2.792,1-2.792.718,0,.9.6.9,2.891v2.122h1.037V147.4c0-2.332.184-2.891.95-2.891s.951.559.951,2.891v2.122h1.076l-.076-2.376a11.716,11.716,0,0,0-.3-2.84,1.771,1.771,0,0,0-2.642-.362c-.214.193-.365.231-.443.11a1.685,1.685,0,0,0-1.934-.411m7.727.341c-1.413,1.239-1.286,4.672.2,5.44a2.106,2.106,0,0,0,2.715-.554c.444-.677-.084-1.143-.67-.592a1.3,1.3,0,0,1-2.2-.94c0-.4.035-.408,1.555-.408h1.555v-.648c0-2.335-1.708-3.575-3.16-2.3m5.792-.242c-.215.151-.384.189-.384.086s-.233-.182-.518-.182h-.518v5.876h1.037v-2.16c0-2.316.192-2.852,1.024-2.852.749,0,.877.406.877,2.778v2.235h1.036l-.009-2.2c-.015-3.406-.937-4.7-2.544-3.576m8.449-.027a1.756,1.756,0,0,0,.552,3.241c1.187.338,1.655.962,1.122,1.495-.464.465-1.693.108-1.693-.489,0-.266-.119-.34-.541-.34-.516,0-.535.025-.432.562.416,2.172,3.824,1.931,3.824-.271,0-.987-.33-1.354-1.65-1.836-.84-.307-1.028-.447-1.028-.764,0-.916,1.049-1.113,1.52-.285.387.68,1.072.729,1.072.076a1.825,1.825,0,0,0-2.746-1.389m8.17-.072a2.188,2.188,0,0,0-1.1,1.409c0,.492.9.439,1.126-.067a.866.866,0,0,1,1.639.41c0,.454-.053.5-.61.5a2.115,2.115,0,0,0-2.089,1.145c-.734,1.757.928,3.372,2.446,2.378.261-.171.426-.2.426-.086s.214.193.475.193h.475l-.045-2.03c-.082-3.6-.81-4.629-2.739-3.849m5.675.1c-.215.151-.384.189-.384.086s-.233-.182-.518-.182h-.518v5.876h1.037v-2.16c0-2.316.192-2.852,1.025-2.852.748,0,.876.406.876,2.778v2.235h1.037l-.01-2.2c-.015-3.406-.937-4.7-2.544-3.576m16.38-.1a1.693,1.693,0,0,1-.907.062l-.648-.1v5.92h1.037V147.3c0-2.392.143-2.792,1-2.792.717,0,.9.6.9,2.891v2.122h1.037V147.4c0-2.332.184-2.891.951-2.891s.951.559.951,2.891v2.122h1.076l-.077-2.376a11.732,11.732,0,0,0-.3-2.84,1.772,1.772,0,0,0-2.642-.362c-.214.193-.366.231-.443.11a1.686,1.686,0,0,0-1.934-.411m7.726.341c-1.412,1.239-1.285,4.672.2,5.44a2.107,2.107,0,0,0,2.715-.554c.443-.677-.084-1.143-.671-.592a1.3,1.3,0,0,1-2.2-.94c0-.4.036-.408,1.555-.408h1.555v-.648c0-2.335-1.707-3.575-3.16-2.3m10.66-.341a2.187,2.187,0,0,0-1.1,1.409c0,.492.9.439,1.126-.067a.866.866,0,0,1,1.64.41c0,.454-.054.5-.611.5a2.114,2.114,0,0,0-2.088,1.145c-.734,1.757.928,3.372,2.446,2.378.262-.171.426-.2.426-.086s.214.193.475.193h.476l-.046-2.03c-.081-3.6-.81-4.629-2.739-3.849m5.674.1c-.215.151-.384.189-.384.086s-.234-.182-.518-.182h-.518v5.876h1.037v-2.16c0-2.316.192-2.852,1.024-2.852.748,0,.876.406.876,2.778v2.235h1.037l-.009-2.2c-.015-3.406-.937-4.7-2.545-3.576m22.205.242c-1.412,1.239-1.285,4.672.2,5.44a2.107,2.107,0,0,0,2.715-.554c.443-.677-.084-1.143-.671-.592a1.3,1.3,0,0,1-2.2-.94c0-.4.036-.408,1.555-.408h1.555v-.648c0-2.335-1.707-3.575-3.16-2.3m6.037-.39a1.734,1.734,0,0,1-.806.079l-.687-.041v5.89h1.037v-2.148c0-2.334.127-2.691.963-2.691.365,0,.419-.08.419-.606,0-.592-.537-.874-.926-.484m2.6.39c-1.412,1.239-1.285,4.672.2,5.44a2.106,2.106,0,0,0,2.715-.554c.444-.677-.084-1.143-.671-.592a1.3,1.3,0,0,1-2.2-.94c0-.4.035-.408,1.555-.408h1.555l0-.648c0-2.335-1.707-3.575-3.16-2.3M169.365,145.9c0,3.161.411,3.976,1.877,3.721a8.7,8.7,0,0,1,1.362-.1l.735.014v-5.89H172.3v2.16c0,2.356-.189,2.851-1.088,2.851-.729,0-.812-.277-.812-2.713v-2.3h-1.037V145.9m28.17,0c0,3.161.412,3.976,1.877,3.721a8.723,8.723,0,0,1,1.363-.1l.735.014v-5.89h-1.037v2.16c0,2.356-.19,2.851-1.089,2.851-.729,0-.812-.277-.812-2.713v-2.3h-1.037V145.9m46.385-1.961c1.742,5.521,1.861,6.767.666,6.937a.538.538,0,0,0,.118,1.068c.987,0,1.139-.3,2.34-4.555,1.116-3.955,1.089-3.74.472-3.74-.473,0-.493.041-.979,2.03a5.961,5.961,0,0,1-.571,1.808c-.041-.122-.287-1.016-.548-1.987-.471-1.754-.477-1.766-1.036-1.821-.477-.047-.548-.008-.464.26m8.573,2.647v2.938h1.037v-5.876h-1.037v2.938m31.868-2.647c1.741,5.521,1.86,6.767.666,6.937a.538.538,0,0,0,.117,1.068c.987,0,1.14-.3,2.341-4.555,1.116-3.955,1.088-3.74.472-3.74-.473,0-.493.041-.979,2.03a5.991,5.991,0,0,1-.571,1.808c-.041-.122-.288-1.016-.548-1.987-.47-1.754-.478-1.766-1.036-1.821-.477-.047-.548-.008-.463.26m4.769-.173c-.02,1.243,1.339,5.758,1.732,5.758.425,0,.468-.093.943-2.031l.5-2.03.531,2.03c.5,1.911.556,2.031.963,2.03s.456-.1,1.085-2.809c.772-3.326.759-3.1.181-3.035-.44.052-.483.144-.842,1.833-.471,2.214-.468,2.211-.843.618-.575-2.437-.595-2.483-1.049-2.483s-.474.046-1.048,2.483c-.376,1.591-.364,1.6-.835-.614-.361-1.7-.4-1.785-.846-1.837-.257-.03-.469.009-.47.086m-122.713,1.082c1,1,.507,3.811-.673,3.811-.877,0-1.263-.711-1.189-2.188.09-1.78.952-2.533,1.862-1.623m17.322-.05c.44.4.463,3.067.03,3.546-.879.97-1.849-.063-1.759-1.872.087-1.737.846-2.472,1.729-1.673m5.663.05c1,1,.507,3.811-.673,3.811-.876,0-1.262-.711-1.188-2.188.089-1.78.952-2.533,1.861-1.623m24.628.048c.593.846.38,1.171-.768,1.171-1.18,0-1.34-.26-.679-1.1a.85.85,0,0,1,1.447-.071m52.192,0c.594.846.38,1.171-.768,1.171-1.179,0-1.339-.26-.678-1.1a.85.85,0,0,1,1.446-.071m38.54,0c.594.846.38,1.171-.768,1.171-1.179,0-1.339-.26-.678-1.1a.849.849,0,0,1,1.446-.071m8.642,0c.593.846.38,1.171-.768,1.171-1.18,0-1.34-.26-.679-1.1a.85.85,0,0,1,1.447-.071m-77.156,2.544c0,1.051-1.281,1.709-1.722.886-.452-.845.081-1.567,1.156-1.567.544,0,.566.026.566.681m40.441,0c0,1.051-1.282,1.709-1.722.886-.452-.845.08-1.567,1.156-1.567.544,0,.566.026.566.681m-7.777,1.485a3.709,3.709,0,0,1-.243,1.192c-.426,1.02.354,1.374.828.376.465-.98.381-2.178-.153-2.178-.379,0-.432.075-.432.611" transform="translate(-73.03 -91.437)" fill="#858383" fill-rule="evenodd"/>
  <path id="Path_879" data-name="Path 879" d="M156.2,136.655v.691H315.713v-1.382H156.2v.691" transform="translate(-72.823 -90.67)" fill="#247ecb" fill-rule="evenodd"/>
</svg>
