<svg xmlns="http://www.w3.org/2000/svg" width="410.372" height="345.398" viewBox="0 0 410.372 345.398">
  <g id="Group_54558" data-name="Group 54558" transform="translate(0 -0.003)">
    <g id="Group_54559" data-name="Group 54559" transform="translate(0 0.003)">
      <path id="Path_66049" data-name="Path 66049" d="M409.033,1313.778H1.384A1.369,1.369,0,0,0,0,1315.027a1.338,1.338,0,0,0,1.335,1.427H409.033a1.338,1.338,0,1,0,0-2.676" transform="translate(0 -973.45)" fill="#02aeae"/>
      <path id="Path_66050" data-name="Path 66050" d="M539.195,108.024a23.813,23.813,0,1,1,12.758-31.167,23.84,23.84,0,0,1-12.758,31.167" transform="translate(-375.097 -46.129)" fill="#78e7e7"/>
      <path id="Path_66051" data-name="Path 66051" d="M540.73,109.226a23.193,23.193,0,1,1,12.425-30.356,23.22,23.22,0,0,1-12.425,30.356" transform="translate(-376.871 -47.903)" fill="#78e7e7"/>
      <path id="Path_66052" data-name="Path 66052" d="M561.553,93.063a18.94,18.94,0,1,1-24.788-10.147,18.939,18.939,0,0,1,24.788,10.147" transform="translate(-389.15 -60.351)" fill="#fff"/>
      <path id="Path_66053" data-name="Path 66053" d="M553.715,119.427a17.953,17.953,0,1,1,9.618-23.5,17.973,17.973,0,0,1-9.618,23.5" transform="translate(-391.879 -62.927)" fill="#fff"/>
      <path id="Path_66054" data-name="Path 66054" d="M531.223,173.811l-2.965,1.242a.958.958,0,1,0,.74,1.767l2.965-1.242a.958.958,0,1,0-.74-1.767" transform="translate(-391.025 -128.746)" fill="#92b5f9"/>
      <path id="Path_66055" data-name="Path 66055" d="M618.229,205.954a.959.959,0,0,0-.513,1.254l1.242,2.965a.958.958,0,0,0,1.767-.74l-1.242-2.965a.959.959,0,0,0-1.253-.513" transform="translate(-457.697 -152.566)" fill="#92b5f9"/>
      <path id="Path_66056" data-name="Path 66056" d="M653.337,122.631l-2.965,1.243a.958.958,0,1,0,.74,1.767l2.965-1.242a.958.958,0,1,0-.74-1.767" transform="translate(-481.516 -90.82)" fill="#92b5f9"/>
      <path id="Path_66057" data-name="Path 66057" d="M567.05,83.839a.959.959,0,0,0-.513,1.253l1.242,2.965a.958.958,0,0,0,1.767-.74L568.3,84.352a.959.959,0,0,0-1.254-.513" transform="translate(-419.771 -62.073)" fill="#92b5f9"/>
      <path id="Path_66058" data-name="Path 66058" d="M594.451,40.666l.264-3.76a.56.56,0,0,1,.6-.519l4.313.3a.56.56,0,0,1,.519.6l-.264,3.76a.56.56,0,0,1-.6.519l-4.312-.3a.561.561,0,0,1-.52-.6" transform="translate(-440.511 -26.964)" fill="#02aeae"/>
      <path id="Path_66059" data-name="Path 66059" d="M510.607,73.149,507.741,70.7a.56.56,0,0,0-.79.062l-2.808,3.287a.56.56,0,0,0,.062.79l2.866,2.448a.561.561,0,0,0,.79-.062l2.807-3.287a.56.56,0,0,0-.062-.79" transform="translate(-373.491 -52.293)" fill="#02aeae"/>
      <path id="Path_66060" data-name="Path 66060" d="M542.166,40.461a.546.546,0,0,1-.714-.292l-1.049-2.5a.545.545,0,0,1,.292-.713l5.106-2.14a.546.546,0,0,1,.713.292l1.049,2.5a.546.546,0,0,1-.292.714Z" transform="translate(-400.429 -25.767)" fill="#02aeae"/>
      <path id="Path_66061" data-name="Path 66061" d="M530.121,22.131a5.956,5.956,0,1,1,3.469-1.451l.569,1.356a7.372,7.372,0,1,0-3.468,1.454Z" transform="translate(-387.043 -6.535)" fill="#02aeae"/>
      <path id="Path_66062" data-name="Path 66062" d="M554.629,55.451q.894-.374,1.8-.673l-1.513-3.61-2.821,1.182,1.494,3.566q.512-.243,1.04-.465" transform="translate(-409.123 -37.918)" fill="#92b5f9"/>
      <path id="Path_66063" data-name="Path 66063" d="M594.753,148.433a1.747,1.747,0,1,1-2.286-.936,1.747,1.747,0,0,1,2.286.936" transform="translate(-438.247 -109.201)" fill="#92b5f9"/>
      <path id="Path_66064" data-name="Path 66064" d="M598,98.967l-1.247,14.352a.657.657,0,0,1-1.309-.114c.005-.057-.105.576,2.556-14.239" transform="translate(-441.242 -73.339)" fill="#92b5f9"/>
      <path id="Path_66065" data-name="Path 66065" d="M609.006,159.473l-12.874-6.465a.657.657,0,1,1,.59-1.174c.051.026-.5-.311,12.284,7.64" transform="translate(-441.489 -112.463)" fill="#92b5f9"/>
      <path id="Path_66066" data-name="Path 66066" d="M596.757,151.789a.714.714,0,1,1-.934-.382.714.714,0,0,1,.934.382" transform="translate(-441.204 -112.158)" fill="#92b5f9"/>
      <path id="Path_66067" data-name="Path 66067" d="M1263.268,477.943a.7.7,0,0,0-.706-.212,10.014,10.014,0,0,1-4.663-.561l-1.227-6.075a10.02,10.02,0,0,1,4.08-2.327.7.7,0,0,0,.569-.47l1.552-4.618a.7.7,0,0,0-.17-.718,10.021,10.021,0,0,1-1.846-4.319l4.648-4.1a10.021,10.021,0,0,1,4.055,2.371.7.7,0,0,0,.692.258l4.775-.964a.7.7,0,0,0,.537-.506,10.016,10.016,0,0,1,2.817-3.758l5.874,1.975a10.015,10.015,0,0,1-.025,4.7.7.7,0,0,0,.122.727l3.223,3.653a.7.7,0,0,0,.706.212,10.016,10.016,0,0,1,4.664.561l1.226,6.075a10.017,10.017,0,0,1-4.081,2.327.7.7,0,0,0-.568.47l-1.553,4.617a.7.7,0,0,0,.169.718,10.023,10.023,0,0,1,1.846,4.319l-4.648,4.1a10.018,10.018,0,0,1-4.055-2.37.7.7,0,0,0-.691-.258l-4.775.964a.7.7,0,0,0-.537.506,10.016,10.016,0,0,1-2.818,3.758l-5.874-1.975a10.014,10.014,0,0,1,.025-4.7.7.7,0,0,0-.122-.727Zm13.362-1.49a6.1,6.1,0,1,0-7.191-4.775,6.1,6.1,0,0,0,7.191,4.775m.775,3.837a10.018,10.018,0,1,0-11.8-7.837,10.017,10.017,0,0,0,11.8,7.837" transform="translate(-931.244 -334.91)" fill="#78e7e7"/>
      <path id="Path_66068" data-name="Path 66068" d="M1392.335,560.883a.553.553,0,0,1,.425-.4l3.781-.764a.554.554,0,0,1,.547.2,7.932,7.932,0,0,0,3.21,1.877l3.68-3.246a7.927,7.927,0,0,0-1.461-3.42.555.555,0,0,1-.134-.568l1.23-3.656a.554.554,0,0,1,.45-.372,7.927,7.927,0,0,0,3.231-1.842l-.971-4.81a7.935,7.935,0,0,0-3.693-.444.554.554,0,0,1-.56-.168l-2.552-2.893a.554.554,0,0,1-.1-.576,7.924,7.924,0,0,0,.02-3.719l-4.651-1.564a7.923,7.923,0,0,0-2.231,2.976.554.554,0,0,1-.425.4l-3.781.763a.554.554,0,0,1-.548-.2,7.926,7.926,0,0,0-3.211-1.877l-3.68,3.246a7.928,7.928,0,0,0,1.462,3.42.553.553,0,0,1,.134.568l-1.229,3.656a.554.554,0,0,1-.45.372,7.936,7.936,0,0,0-3.231,1.842l.971,4.81a7.932,7.932,0,0,0,3.693.444.554.554,0,0,1,.559.168l2.552,2.893a.553.553,0,0,1,.1.576,7.933,7.933,0,0,0-.02,3.719l4.651,1.564a7.939,7.939,0,0,0,2.231-2.976m1.3-5.8a6.012,6.012,0,1,1,4.7-7.083,6.012,6.012,0,0,1-4.7,7.083" transform="translate(-1020.857 -396.102)" fill="#78e7e7"/>
      <path id="Path_66069" data-name="Path 66069" d="M372.043,301.923l-4.2-1.584-3.687,2.563a.617.617,0,0,1-.969-.536l.208-4.485-3.577-2.714a.617.617,0,0,1,.21-1.087l4.33-1.188,1.476-4.241a.617.617,0,0,1,1.1-.136l2.468,3.751,4.49.093a.617.617,0,0,1,.469,1l-2.8,3.507,1.3,4.3a.617.617,0,0,1-.808.756" transform="translate(-266.457 -213.596)" fill="#78e7e7"/>
      <path id="Path_66070" data-name="Path 66070" d="M372.062,198.854l-2.284-6.132-5.843,1.747-2.517-5.941-5.789.981-2.61-4.139-2.1,1.322,3.491,5.535,5.487-.93,2.618,6.181,5.747-1.719,2.07,5.557Z" transform="translate(-260.049 -137.367)" fill="#78e7e7"/>
      <path id="Path_66071" data-name="Path 66071" d="M1312.2,337.467l-5.739-3.143-3.276,5.144-5.79-2.848-3.737,4.53-4.682-1.423-.72,2.37,6.262,1.9,3.541-4.293,6.024,2.962,3.222-5.059,5.2,2.849Z" transform="translate(-954.65 -247.748)" fill="#78e7e7"/>
      <path id="Path_66072" data-name="Path 66072" d="M789.529,46.18l-2.455,6.066,5.49,2.656-2.155,6.082,4.934,3.185-.869,4.815,2.437.44,1.162-6.44L793.4,59.965l2.242-6.327-5.4-2.612,2.225-5.5Z" transform="translate(-583.252 -33.739)" fill="#78e7e7"/>
      <path id="Path_66073" data-name="Path 66073" d="M1315.168,623.357l-1.207-2.378-2.718.093-1.164-2.761-2.865.991-1.454-3.065-2.75.587-1.881-2.72,1.029-.712,1.407,2.033,2.9-.62,1.4,2.946,2.912-1.007,1.285,3.047,2.654-.09,1.119,2.2,1.73-.424.3,1.216Z" transform="translate(-964.188 -454.549)" fill="#78e7e7"/>
      <path id="Path_66074" data-name="Path 66074" d="M1148.98,177.841l-1.27-3.778,5.853-2.715-1.176-5.753,4.048-2.748-1.391-2.049-5.414,3.675,1.114,5.452-6.09,2.824,1.911,5.686Z" transform="translate(-848.234 -119.157)" fill="#78e7e7"/>
      <path id="Path_66075" data-name="Path 66075" d="M1244.072,176.9c6.455,9.864-2.324,23.554-13.818,21.517a8.706,8.706,0,0,0-6.065,1.248l-6.356,3.918a3.668,3.668,0,0,1-5.056-1.075l-2.445-3.737a4.16,4.16,0,0,1,.835-5.376c5.748-4.922,8.193-6.319,8.965-10.447,2.258-12.075,17.484-15.915,23.94-6.049" transform="translate(-896.432 -126.932)" fill="#78e7e7"/>
      <path id="Path_66076" data-name="Path 66076" d="M1249.6,197.4a12.153,12.153,0,0,1-.3-1.738c-.294-3.449,2.371-4.641,3.776-3.751a2.54,2.54,0,0,1,.747,3.141,8.389,8.389,0,0,1-2.492,2.828,16.651,16.651,0,0,0,2.557,5.251c3.142-1.894,5.388-.858,5.534.855a2.794,2.794,0,0,1-1.677,2.7c-.636.277-2.281.658-4.229-1.5-5.305,3.741-12.229,9.271-12.251,9.287l-.879-1.222c.021-.017,6.906-5.51,12.192-9.246a18.076,18.076,0,0,1-2.53-5c-6.047,5.278-11.376,9.451-11.562,9.6l-.875-1.225c.387-.314,5.55-4.334,11.991-9.983m2.55-4.2c-.469-.178-1.713.338-1.212,3.027,1.4-1.229,1.826-1.766,1.212-3.027m2.705,11.116c.773.8,1.942,1.529,2.727.661,1.008-1.114-.433-1.948-2.727-.661" transform="translate(-917.114 -142.007)" fill="#fff"/>
      <path id="Path_66077" data-name="Path 66077" d="M1224.352,248.461c-.054.032-.11.058-.162.091l-6.356,3.918a3.668,3.668,0,0,1-5.056-1.075l-2.445-3.737a4.161,4.161,0,0,1,.835-5.376c2.557-2.19,4.459-3.681,5.853-5.026Z" transform="translate(-896.431 -175.817)" fill="#02aeae"/>
      <path id="Path_66078" data-name="Path 66078" d="M145.982,848.193s-.206-1.01-.249-1.351c-.05-.4-.107-1.609-.107-1.609s0-4.223.311-4.2.717.75.808,1.01.223.556.315.817a.538.538,0,0,0,.693.317c.332-.091.193-1.209.068-1.586a43.776,43.776,0,0,0-2.228-4.421c-.194-.376,1.153-7.7,1.414-10.246h0c.553-4.155,1.329-8.4,1.39-8.838l7.4-16.355-4.939-5.044s-8.467,18.036-8.787,18.986c-.153.452-.687,10.182-.684,10.182.039,4.807.085,9.043.07,9.857,0,0-.7,2.423-1.232,3.939a13.9,13.9,0,0,0-.5,3.577,10.359,10.359,0,0,0-.131,3.514c.223,1.653.775-.025.775-.025s.142-3.143.389-3.092c.191.039.011,1.752.238,3.584.058.471.118.936.176,1.362.152,1.119.888,1.337.917.139a11.128,11.128,0,0,0-.061-1.627,9.293,9.293,0,0,1,.033-1.529,12.247,12.247,0,0,1,.044-1.576c.049.027.182-.156.259.342.093.6.008,1.917.214,2.786.117.493.3,1.537.3,1.537a10.609,10.609,0,0,0,.581,1.656c.549-.023.548-1.313.3-1.96a7.5,7.5,0,0,0-.165-1.589s.053-2.318.383-2.319c.271,0,1.223,5.56,1.772,5.5.448-.051.238-1.737.238-1.737" transform="translate(-103.377 -590.379)" fill="#fb9390"/>
      <path id="Path_66079" data-name="Path 66079" d="M167.062,786.505a35.1,35.1,0,0,1-4.7-1.137c-2.172-.808-3.6-1.516-3.6-1.516s2.385-10.206,5.36-16.4c1.23-2.562,2.473-3.8,4.208-4.094.011,0,3.656,2.4,3.512,8.187-.034,1.359-4.778,14.962-4.778,14.962" transform="translate(-117.648 -565.678)" fill="#e8605d"/>
      <path id="Path_66080" data-name="Path 66080" d="M227.279,985.189l3.98,36.617s-1.945,7.743-1.711,9.943,4.326,31.058,4.326,31.058l-.172,1.619,0,4.78h15.187a67.837,67.837,0,0,1-7.732-4.424,3.209,3.209,0,0,1-1.289-2.291c-1.2-8.895,1.178-38.564,1.178-38.564l1.876-38.62Z" transform="translate(-168.423 -730.065)" fill="#fb9390"/>
      <path id="Path_66081" data-name="Path 66081" d="M148.18,1014.932c-.857.224-2.178,31.708-2.888,33.1-4.5,8.847-5.573,35.742-5.573,35.742l-1.309,3.83-1.4,4.7s4.5,1.231,6.855-.109l-.262-4.63-.239-4.234,11.361-33.509,6.216-34.179Z" transform="translate(-101.529 -752.105)" fill="#fb9390"/>
      <path id="Path_66082" data-name="Path 66082" d="M203.611,750.71c-1.833-2.579-9.394-10.048-10.234-10.033-2.449.044-10.487.047-12.058.869l.01,1.759a94.684,94.684,0,0,0,3.024,23.31c1.379,5.306,2.686,10.972,2.525,13.007l.038.038a10.906,10.906,0,0,0,16.239-.8,96.647,96.647,0,0,1,.637-10.785c1.026-8.059,4.372-10.955-.18-17.361" transform="translate(-134.365 -548.872)" fill="#02aeae"/>
      <path id="Path_66083" data-name="Path 66083" d="M216.7,704.376a42.948,42.948,0,0,1-.246,7.235c-.458,1.989-1.068,2.139,2.862,2.744,1.544.238,3.032.593,3.032.593s-.4-2.921-.464-4.154c-.1-2.031.454-8.3.454-8.3Z" transform="translate(-160.154 -520.576)" fill="#fb9390"/>
      <path id="Path_66084" data-name="Path 66084" d="M222.1,706.986a6.9,6.9,0,0,0,2.26.826c.133-2.477.385-5.319.385-5.319l-5.379,1.8a7.156,7.156,0,0,0,2.733,2.7" transform="translate(-162.56 -520.575)" fill="#ef7f7f"/>
      <path id="Path_66085" data-name="Path 66085" d="M210.849,652.478a6.874,6.874,0,0,0-3.485,3.266c-1.24,2.473-1.7,9.424,3.183,12.143,2.418,1.346,5.208,1.6,6.521.417,1.34-1.208,1.176-3.891,1.042-6.122-.266-4.419-1.238-11.109-7.262-9.7" transform="translate(-153.053 -483.372)" fill="#fb9390"/>
      <path id="Path_66086" data-name="Path 66086" d="M201.414,681.743c.277,1.16-.093,2.281-.827,2.5s-1.554-.54-1.831-1.7.093-2.281.827-2.5,1.554.54,1.831,1.7" transform="translate(-147.218 -503.911)" fill="#f7a491"/>
      <path id="Path_66087" data-name="Path 66087" d="M143.489,1295.338a7.274,7.274,0,0,1-5.191.06l-1.44,4.714s4.528,1.341,6.886,0Z" transform="translate(-101.417 -959.897)" fill="#fa7167"/>
      <path id="Path_66088" data-name="Path 66088" d="M170.075,1087.137c0,.005,0,0,.005,0Z" transform="translate(-126.032 -805.612)" fill="#f47458"/>
      <path id="Path_66089" data-name="Path 66089" d="M250.942,1297.11h15.788c.584-.054.726-.545.524-.848-.417-.624-2.259-1.081-4.329-2.074-3.631.394-11.251-2.187-11.824-3.054-.331,1.737-.483,5.9-.158,5.977" transform="translate(-185.825 -956.782)" fill="#fa7167"/>
      <path id="Path_66090" data-name="Path 66090" d="M271.537,808.25c.306-.425,1.33-2.5,1.33-2.5s1.061-3.563.841-3.516a3.963,3.963,0,0,0-1.086,1.61c-.317.659-.663,1.813-.991,2.382-.575,1-1.218,1.417-1.059,1.031.116-.281.51-.513.857-1.112.844-1.458,1.59-3.843,1.265-3.795-.286.042-1.1,1.686-2.005,2.964a9.328,9.328,0,0,1-2.215,1.7,3.019,3.019,0,0,1,.143-.782c.089-.279,1.343-1.942.853-2.152s-3.475,3.393-3.475,3.393l-1.226,2.088-.109.08h0s-14.89,5.838-15.389,5.68c-1.171-.371-5.173-11.97-5.173-11.97l-8.331,1.5c-.12-.065,8.758,17.264,10.414,18.114,1.454.746,16.932-7.318,19.839-9.043,4-1.541,5.568-3.374,6.217-4.312.349-.5,1.691-2.7,1.691-2.7s.288-3.037.07-3.064c-.734-.09-.938,2.773-.938,2.773s-.993,1.351-1.166,1.528c-.428.44-.352.1-.352.1" transform="translate(-174.708 -594.484)" fill="#fb9390"/>
      <path id="Path_66091" data-name="Path 66091" d="M214.6,754.044c-1.137,4.819,4.928,15.563,4.928,15.563s8.639-4.2,10.158-6c0,0-5.959-9.834-6.329-10.477-.8-1.387-3.6-4.255-5.483-3.728-1.2.335-3.274,4.646-3.274,4.646" transform="translate(-158.919 -555.287)" fill="#02aeae"/>
      <path id="Path_66092" data-name="Path 66092" d="M136.224,666.412c.646-4.421,7.978-13.43,5.146-17.194-2.292-3.046-6.287-2.135-8.832-1.259-11.544,3.971-10.881,18.484-14.526,20.753-6.606,4.115-10.671,6.677-11.147,15.947-.565,10.994,8.772,16.609,20,13.919,6.038-1.446,7.638-3.422,10.059-9.123,1.092-2.57,3.293-10.586,2.691-14.5-.54-3.507-3.912-4.977-3.392-8.538" transform="translate(-79.173 -479.538)" fill="#263238"/>
      <path id="Path_66093" data-name="Path 66093" d="M231.175,683.558c0,1.309-.475,2.37-1.061,2.37s-1.061-1.061-1.061-2.37.475-2.37,1.061-2.37,1.061,1.061,1.061,2.37" transform="translate(-169.737 -504.788)" fill="#fb9390"/>
      <path id="Path_66094" data-name="Path 66094" d="M201.913,937.066l.54-21.723a42.994,42.994,0,0,0-3.558-17.815l-4.105-9.421a24.831,24.831,0,0,1-4.971,1.209,48.41,48.41,0,0,1-11.305-.443,3.009,3.009,0,0,1-.052.384c-.685,3.2-4.5,10.331-6.108,20.08-1.825,11.066-2.507,27.616-2.279,28.914,17.446.793,21.6,1.422,31.839-1.185" transform="translate(-126 -658.123)" fill="#85f8f8"/>
      <path id="Path_66109" data-name="Path 66109" d="M51.836,198.841c-6.763-14.149-8.621-35.263-1.25-52.011,12.427-28.268,46.62-39.805,44.1-71.842-.634-8.07-4.224-14.56-9.512-18.736-13.918-10.989-36.31-5.173-52.292,2.5A100.162,100.162,0,0,0,4.446,79.616L0,23.032C19.185,9.418,42.4,2.3,65.568.479c47.479-3.731,84.142,14.077,87.874,61.568,3.4,43.313-25.867,62.5-45.5,84.154-10.9,12.019-13.361,21.277-12.519,32,.436,5.544,2.515,12.39,5.857,16.753Zm34.091,77.377c-46.15,3.626-51.494-58.374-4.875-62.037,45.921-3.608,50.848,58.425,4.875,62.037" transform="matrix(0.998, 0.07, -0.07, 0.998, 162.383, 58.979)" fill="#70f2f2" opacity="0.8"/>
      <path id="Path_66112" data-name="Path 66112" d="M398.646,777.524a5.787,5.787,0,0,0,.549,1.42,53.713,53.713,0,0,0,5.249,7.453l2.837-6.823s-.462-2.143-1.265-5.2c-2.741.764-5.35,1.206-7.371,3.154" transform="translate(-295.412 -573.839)" fill="#fb9390"/>
      <path id="Path_66113" data-name="Path 66113" d="M395.951,695.435s-15.826,7.273-16.338,7.134c-.33-.09-6.492-11.1-6.557-21.449-.031-4.781,4.622-10.532,9.812-9.395,2.613.573,2.573,1.348,6.439,7.344s6.643,16.365,6.643,16.365" transform="translate(-276.449 -497.668)" fill="#78e7e7"/>
      <path id="Path_66114" data-name="Path 66114" d="M510.605,1267.266s-.375,6.633-.378,6.647c-.138.842-.682,2.923-.682,3.689,0,2.876,12.8-2.442,9.929-3.716-.259-.116-1.62-.988-1.7-1.967-.132-1.508-.465-4.56-.465-4.56Z" transform="translate(-377.594 -939.095)" fill="#fb9390"/>
      <path id="Path_66115" data-name="Path 66115" d="M518.146,1292.384a46.206,46.206,0,0,1-4.543,1.1c-1.539.22-3.568-1.632-4.656-1.132-1.2.551-1.151,5.507-1.151,5.507s16.112,1.411,20.643-.049c1.795-.578-4.15-3.377-10.292-5.426" transform="translate(-376.296 -957.62)" fill="#0b0754"/>
      <path id="Path_66116" data-name="Path 66116" d="M409.513,1267.266s-.375,6.633-.378,6.647c-.138.842-.681,2.923-.681,3.689,0,2.876,12.8-2.442,9.929-3.716-.26-.116-2.023-1.64-2.108-2.619-.132-1.508-.062-3.908-.062-3.908Z" transform="translate(-302.681 -939.095)" fill="#fb9390"/>
      <path id="Path_66117" data-name="Path 66117" d="M416.784,1292.384a46.2,46.2,0,0,1-4.543,1.1c-1.539.22-3.567-1.632-4.656-1.132-1.2.551-1.246,5.507-1.246,5.507s16.185,1.645,20.737-.049c1.767-.657-4.15-3.377-10.292-5.426" transform="translate(-301.113 -957.62)" fill="#0b0754"/>
      <path id="Path_66118" data-name="Path 66118" d="M427.648,651.707l11.271-16.851c.047-.148.15-.45.306-.911.568-1.672,1.749-5.151,2.778-8.613l.011-.037c.323-1.21,1.009-3.32,1.672-5.362.737-2.27,1.651-5.086,1.683-5.566-.028-.082-.082-.229-.152-.425a41.1,41.1,0,0,1-1.169-5.057c-.126-.755-.251-2.59.589-2.59,1.322,0,.692,1.833,1.3,2.977a30.457,30.457,0,0,0,.916-3.819l.221-3.583c.043-.27-.227-2.247.7-2.247l.044,0c.833.065.814,2.166,1.161,5.72.11-.409.219-.9.3-1.356a13.752,13.752,0,0,1,.282-1.875c-.168-.99-.07-2.552.918-2.4.5.074.454,2.254.454,2.254-.005.3-.034,2.6-.019,3.059.1-.773.5-4.072,1.273-4.072.643,0,.695.888.681,1.59-.008.416-.412,3.989-.434,4.4.3-.542.662-3.691.962-3.691,1.254,0,.8,4.477.34,5.644a5.464,5.464,0,0,0-.143.625,11.5,11.5,0,0,1-1.075,3.331c-.787,1.437-1.873,3.722-2.039,4.072-.121.714-.5,3.28-.973,6.509-.2,1.382-.425,2.9-.657,4.466l-.012,0c-.043.34-.278,1.419-1.169,5.47a51,51,0,0,1-1.4,5.885c-.53,1-12.682,18.614-13.2,19.363l-.305.442Z" transform="translate(-316.904 -444.347)" fill="#fb9390"/>
      <path id="Path_66119" data-name="Path 66119" d="M501.322,641.554s-.915-2.5-2.543-2.5a1.773,1.773,0,0,1,1.69.309,3.578,3.578,0,0,1,.853,2.192" transform="translate(-369.615 -473.495)" fill="#ef7f7f"/>
      <path id="Path_66120" data-name="Path 66120" d="M412.979,628.708l-1.451,9.793s5.529,4.738,8.751,3.738c2.7-.838.85-4.612.85-4.612s-1.44-5.228-1-7.968-7.151-.952-7.151-.952" transform="translate(-304.958 -465.473)" fill="#fb9390"/>
      <path id="Path_66121" data-name="Path 66121" d="M417.375,631.672a21.507,21.507,0,0,0,6.257,1.882,13.857,13.857,0,0,1-.147-3.891c.2-1.265-1.3-1.564-2.987-1.52-2.2.2-4.165.568-4.165.568l-.279,1.882a4.6,4.6,0,0,0,1.32,1.079" transform="translate(-308.313 -465.476)" fill="#ef7f7f"/>
      <path id="Path_66122" data-name="Path 66122" d="M390.146,571.667c-.228,0,2.185,10.941,5.921,12.823s9.305.9,10.35-2.045c1.156-3.259-3.061-14.42-8.314-15.838s-7.957,5.061-7.957,5.061" transform="translate(-289.103 -419.728)" fill="#fb9390"/>
      <path id="Path_66123" data-name="Path 66123" d="M381.433,546.434a12.356,12.356,0,0,0-4.814,5.676c-1.4.709-3.095,2.243-3.908,6.376a8.963,8.963,0,0,0,6.325,10.178c3.769,1.179,4.406,3.84,4.406,3.84l.373-2.865a11.546,11.546,0,0,0-2.1-3.743c-1.261-1.248.6-3.068.761-4.552.126-1.143-.662-3.361-.492-5.236,0,0,2.094-3.388,4.159-4.225,3.52-1.427-.883-7.806-4.711-5.449" transform="translate(-276.068 -404.546)" fill="#263238"/>
      <path id="Path_66124" data-name="Path 66124" d="M404.636,607.607c.488,1.264.288,2.518-.446,2.8s-1.725-.51-2.214-1.774-.288-2.518.446-2.8,1.725.51,2.214,1.774" transform="translate(-297.683 -448.904)" fill="#fb9390"/>
      <path id="Path_66125" data-name="Path 66125" d="M466.737,771.947l21.741-3.783s-2.474-6.646-3.357-6.646-16.439,7.247-16.439,7.247l-1.237,2.651Z" transform="translate(-345.87 -564.315)" fill="#fb9390"/>
      <path id="Path_66126" data-name="Path 66126" d="M413.134,860.187s-2.169,11.19-1.285,19.675.953,38.624.953,38.624l-3.372,48.224,8,.186s9.489-48.2,9.313-46.964,3.182-33.939,3.182-33.939l-11.313-26.868Z" transform="translate(-303.404 -636.648)" fill="#0b0754"/>
      <path id="Path_66127" data-name="Path 66127" d="M430.392,850.552s-1.414,10.076.354,14.495,15.161,47.778,15.338,51.313,4.631,42.61,4.631,42.61l9.305-.279,2.013-43.444-4.215-54.6-4.092-13.805Z" transform="translate(-318.541 -627.543)" fill="#0b0754"/>
      <path id="Path_66128" data-name="Path 66128" d="M411.529,659.1a8.013,8.013,0,0,0,4.435,1.421c2.14-.186,5.166-2.294,5.166-2.294l-.421-1.521s-5.537-.861-5.676-.768-3.5,3.162-3.5,3.162" transform="translate(-304.959 -486.07)" fill="#fb9390"/>
      <path id="Path_66129" data-name="Path 66129" d="M505.97,736.755s8.224,8.282,11.936,6.868,5.248-6.248-3.809-13.32c-8.106-6.329-8.126,6.452-8.126,6.452" transform="translate(-374.944 -539.88)" fill="#fb9390"/>
      <path id="Path_66130" data-name="Path 66130" d="M419.593,699.284c-1.222-7.093-10.075-29.166-10.783-33.231-.344-1.977-5.119-2.021-9.668-1.763-4.8.273-9.578.921-9.578.921s-4.253.746-6.125,2.617-2.368,7.047.322,16.873c2.124,7.756,4.756,12.014,6.059,17.664.264,1.895.49,3.764.79,5.948.479,8.447-.006,19.607-.006,19.607s23.156,5.126,31.817-2.651c0,0-1.577-18.717-2.828-25.984" transform="translate(-282.995 -492.183)" fill="#8cfafa"/>
      <path id="Path_66131" data-name="Path 66131" d="M476.149,684.843s-9.086,8-9.616,8c-.342,0-12.966-9.911-15.88-18.054-1.611-4.5,1.768-9.538,5.628-9.521,2.675.012,3.865.747,9.167,5.52s10.7,14.051,10.7,14.051" transform="translate(-333.647 -492.994)" fill="#78e7e7"/>
      <path id="Path_66132" data-name="Path 66132" d="M972.226,48.785l-19.7,13.328a4.372,4.372,0,0,1-6.071-1.171l-13.328-19.7A4.373,4.373,0,0,1,934.3,35.17L954,21.842a4.372,4.372,0,0,1,6.071,1.171l13.328,19.7a4.373,4.373,0,0,1-1.172,6.071" transform="translate(-690.927 -15.63)" fill="#78e7e7"/>
      <path id="Path_66133" data-name="Path 66133" d="M989.695,60.061a11.147,11.147,0,1,1-15.479-2.986,11.147,11.147,0,0,1,15.479,2.986" transform="translate(-718.3 -40.875)" fill="#fff"/>
      <path id="Path_66134" data-name="Path 66134" d="M998.188,80.523l4.573,4.986a.9.9,0,0,1-1.322,1.213.949.949,0,0,1-.135-.194Z" transform="translate(-739.697 -59.671)" fill="#fa7167"/>
      <path id="Path_66135" data-name="Path 66135" d="M1010.5,88.876l6.9-3.862-6.018,5.127a.774.774,0,1,1-1-1.179.832.832,0,0,1,.124-.086" transform="translate(-748.525 -62.999)" fill="#fa7167"/>
      <path id="Path_66136" data-name="Path 66136" d="M184.938,446.568h-39.9a13.019,13.019,0,0,1-13.019-13.019v-8.264a13.019,13.019,0,0,1,13.019-13.019h39.9a13.019,13.019,0,0,1,13.019,13.019v8.264a13.019,13.019,0,0,1-13.019,13.019" transform="translate(-97.829 -305.507)" fill="#78e7e7"/>
      <path id="Path_66137" data-name="Path 66137" d="M356.435,471.994l16.24,7.279L361.8,464.053Z" transform="translate(-264.132 -343.882)" fill="#78e7e7"/>
      <path id="Path_66138" data-name="Path 66138" d="M200.526,466.976a2.864,2.864,0,1,1-2.844-2.528,2.7,2.7,0,0,1,2.844,2.528" transform="translate(-144.382 -344.175)" fill="#fff"/>
      <path id="Path_66139" data-name="Path 66139" d="M251.632,466.976a2.864,2.864,0,1,1-2.844-2.528,2.7,2.7,0,0,1,2.844,2.528" transform="translate(-182.253 -344.175)" fill="#fff"/>
      <path id="Path_66140" data-name="Path 66140" d="M302.737,466.976a2.864,2.864,0,1,1-2.844-2.528,2.7,2.7,0,0,1,2.844,2.528" transform="translate(-220.124 -344.175)" fill="#fff"/>
      <path id="Path_66141" data-name="Path 66141" d="M903.229,6.752l-2.677-5.706L902.776,0l1.517,3.235L908,1l1.272,2.1Z" transform="translate(-667.344 -0.003)" fill="#bed1f9"/>
      <path id="Path_66142" data-name="Path 66142" d="M306.517,324.814l-5.936,2.117-.825-2.314,3.365-1.2-1.876-3.9,2.214-1.064Z" transform="translate(-222.131 -235.984)" fill="#fa7167"/>
      <path id="Path_66143" data-name="Path 66143" d="M1275.7,117.618q.662,2.108,1.323,4.217c.345,1.1.6,2.886,1.675,3.509a.621.621,0,0,0,.844-.221c.532-1.172-.233-2.671-.6-3.817L1277.6,117.1c-.383-1.2-2.276-.69-1.9.523" transform="translate(-945.307 -86.266)" fill="#02aeae"/>
      <path id="Path_66144" data-name="Path 66144" d="M1327.024,113.246c-2.277,7.772-2.3,7.538-2.131,8.331a.842.842,0,0,0,1.4.368c.532-.548.4-.388,2.6-8.185a.967.967,0,0,0-1.864-.514" transform="translate(-981.752 -83.417)" fill="#02aeae"/>
      <path id="Path_66145" data-name="Path 66145" d="M1362.609,167.209l4.024-1.93c1.193-.572,2.732-1.027,3.549-2.112.359-.477-.135-1.1-.643-1.12-1.325-.039-2.738.977-3.9,1.538l-4.014,1.948c-1.125.546-.141,2.214.979,1.676" transform="translate(-1008.653 -120.083)" fill="#02aeae"/>
      <path id="Path_66146" data-name="Path 66146" d="M1349.268,267.512a64.236,64.236,0,0,0,4.313,5.215c.839.873,2.058-.409,1.309-1.309-1.445-1.734-2.93-3.425-4.325-5.2-.73-.93-2.01.377-1.3,1.3" transform="translate(-999.706 -197.04)" fill="#02aeae"/>
      <path id="Path_66147" data-name="Path 66147" d="M1368.068,232.01c1.242.545,2.5,1.05,3.763,1.544,1.153.451,2.522,1.258,3.771,1.081.662-.094.739-.979.367-1.388-.467-.514-.717-.474-3.46-1.531-1.238-.477-2.466-.978-3.708-1.442-1-.373-1.719,1.3-.732,1.736" transform="translate(-1013.443 -170.602)" fill="#02aeae"/>
    </g>
  </g>
</svg>
