<svg id="logo_1_" data-name="logo (1)" xmlns="http://www.w3.org/2000/svg" width="94.41" height="51.105" viewBox="0 0 94.41 51.105">
  <path id="Path_880" data-name="Path 880" d="M112.856,52.081c4.394,0,6.9-4.017,6.9-9.416,0-4.9-2.511-9.165-7.031-9.165s-7.031,4.017-7.031,9.416S108.588,52.081,112.856,52.081Z" transform="translate(-57.993 -5.997)" fill="none"/>
  <path id="Path_882" data-name="Path 882" d="M74.228,31.563V20.641a7.348,7.348,0,0,1,.251-1.632,3.363,3.363,0,0,1,3.013-2.385c2.009,0,3.013,1.758,3.013,4.394V31.563h6.4V20.515a7.348,7.348,0,0,1,.251-1.632,3.089,3.089,0,0,1,3.013-2.26c2.134,0,3.139,1.758,3.139,4.771V31.563h6.277V20.515c0-6.152-3.013-8.914-7.031-8.914a9.059,9.059,0,0,0-4.017,1,10.458,10.458,0,0,0-2.762,2.511h-.126A5.93,5.93,0,0,0,79.878,11.6a7.434,7.434,0,0,0-6.4,3.264H73.35L73.224,12.1H67.7c.126,1.758.126,4.017.126,6.528V31.563Z" transform="translate(-67.7 -11.593)" fill="#8ec750"/>
  <path id="Path_883" data-name="Path 883" d="M100.486,31.536s.126,4.645-3.264,6.528a9.61,9.61,0,0,1-4.9,1.381L92.2,39.7c6.026,1.255,8.663.753,11.174-1.883,2.134-2.26,3.39-5.273,6.4-13.433l4.9-12.555h-7.031l-2.636,10.044a17.919,17.919,0,0,1-1,2.762h-.126a24.421,24.421,0,0,0-1-2.762L99.733,11.7H92.451l7.784,17.953a2.955,2.955,0,0,1,.251,1,1.14,1.14,0,0,1-.377.879A6.528,6.528,0,0,1,97.6,33.921,4.953,4.953,0,0,0,100.486,31.536Z" transform="translate(-61.441 -11.566)" fill="#418cca"/>
  <path id="Path_884" data-name="Path 884" d="M103.413,41.31h-10.8v5.4h4.52v6.277a7.106,7.106,0,0,1-3.264.377c-5.4,0-9.165-3.39-9.165-9.039,0-6.026,4.143-8.914,9.541-8.914H95.88a9.61,9.61,0,0,0,4.9-1.381c3.264-1.883,3.264-6.528,3.264-6.528a5.939,5.939,0,0,1-2.762,2.511c-1.883.879-4.394.251-6.9.251-9.541,0-16.446,5.273-16.572,14.438a13.273,13.273,0,0,0,4.143,10.044c2.636,2.511,6.528,3.766,11.8,3.766A36.111,36.111,0,0,0,103.413,57Z" transform="translate(-65.121 -7.53)" fill="#28b898"/>
  <path id="Path_885" data-name="Path 885" d="M100.3,44.038c0,7.909,5.022,14.061,13.559,14.061s14.187-5.524,14.187-14.563c0-7.658-4.9-13.935-13.684-13.935C105.824,29.6,100.3,35.752,100.3,44.038ZM114.235,34.5c4.52,0,7.031,4.269,7.031,9.165,0,5.4-2.511,9.416-6.9,9.416s-7.031-3.766-7.031-9.165,2.511-9.416,6.9-9.416Z" transform="translate(-59.372 -6.993)" fill="#c1569a"/>
  <path id="Path_886" data-name="Path 886" d="M138.523,57.494,148.316,30h-6.9L137.77,41.8q-1.507,4.708-2.636,9.793h-.126c-.753-3.39-1.632-6.528-2.636-9.793l-3.515-11.676H121.7l9.29,27.494h7.533Z" transform="translate(-53.906 -6.891)" fill="#ec7026"/>
</svg>
