<svg xmlns="http://www.w3.org/2000/svg" width="123.826" height="40.552" viewBox="0 0 123.826 40.552">
  <g id="Group_742" data-name="Group 742" transform="translate(-919.305 -17.224)">
    <path id="Path_1" data-name="Path 1" d="M4.513,44.691H5.551l1.832-6.615h.065l1.833,6.615h1.037l2.27-8.3H11.567L9.832,43.151H9.75L7.982,36.389H6.848L5.081,43.151H5L3.265,36.389H2.243Zm9.2,0h.957V38.465h-.957Zm.487-7.264a.65.65,0,1,0-.681-.648.667.667,0,0,0,.681.648Zm3.179,3.519a1.543,1.543,0,0,1,1.589-1.7A1.376,1.376,0,0,1,20.393,40.8v3.891h.957V40.735c0-1.59-.848-2.351-2.108-2.351a1.839,1.839,0,0,0-1.817,1.054h-.08v-.973H16.42v6.226h.957Zm6.677,0a1.544,1.544,0,0,1,1.59-1.7A1.376,1.376,0,0,1,27.07,40.8v3.891h.957V40.735c0-1.59-.847-2.351-2.108-2.351A1.837,1.837,0,0,0,24.1,39.438h-.081v-.973H23.1v6.226h.956V40.946Zm5.721,3.745h.957V38.465h-.957Zm.487-7.264a.65.65,0,1,0-.681-.648.667.667,0,0,0,.681.648Zm3.179,3.519a1.543,1.543,0,0,1,1.589-1.7A1.376,1.376,0,0,1,36.457,40.8v3.891h.957V40.735c0-1.59-.848-2.351-2.108-2.351a1.836,1.836,0,0,0-1.816,1.054h-.081v-.973h-.925v6.226h.957Zm8.234,6.21c1.492,0,2.692-.68,2.692-2.286v-6.4h-.924v.989h-.1a1.924,1.924,0,0,0-1.816-1.07c-1.573,0-2.66,1.248-2.66,3.162,0,1.946,1.136,3.048,2.644,3.048a1.892,1.892,0,0,0,1.816-1.054h.081v1.265c0,1.038-.73,1.508-1.735,1.508a1.952,1.952,0,0,1-1.784-.94l-.762.535a2.747,2.747,0,0,0,2.546,1.248Zm-.032-3.421c-1.2,0-1.816-.908-1.816-2.206,0-1.264.6-2.286,1.816-2.286,1.167,0,1.783.94,1.783,2.286,0,1.379-.632,2.206-1.783,2.206Zm14.82-3.195c0-2.627-1.54-4.264-3.664-4.264s-3.665,1.637-3.665,4.264,1.54,4.265,3.665,4.265S56.463,43.167,56.463,40.54Zm-.973,0c0,2.157-1.183,3.324-2.691,3.324S50.107,42.7,50.107,40.54s1.184-3.324,2.692-3.324,2.691,1.168,2.691,3.324Zm7.625-2.075H62.078l-1.72,4.962h-.064l-1.719-4.962H57.537l2.3,6.226h.973l2.3-6.226Zm3.65,6.356a2.422,2.422,0,0,0,2.482-1.573l-.925-.26a1.522,1.522,0,0,1-1.556.974,1.887,1.887,0,0,1-1.942-2.06h4.52v-.4c0-2.319-1.378-3.113-2.675-3.113-1.687,0-2.806,1.33-2.806,3.243s1.1,3.194,2.9,3.194Zm-1.941-3.745a1.859,1.859,0,0,1,1.844-1.833,1.688,1.688,0,0,1,1.7,1.832H64.824ZM70.8,44.691h.957v-3.94a1.473,1.473,0,0,1,1.573-1.46,2.924,2.924,0,0,1,.584.066v-.973q-.251-.015-.5-.016a1.7,1.7,0,0,0-1.622,1.037h-.064v-.94H70.8v6.226Zm14.268-5.707a3.235,3.235,0,0,0-3.34-2.708c-2.124,0-3.664,1.637-3.664,4.264s1.54,4.265,3.664,4.265a3.235,3.235,0,0,0,3.34-2.708h-1a2.259,2.259,0,0,1-2.335,1.767c-1.508,0-2.692-1.167-2.692-3.324s1.184-3.324,2.692-3.324a2.26,2.26,0,0,1,2.335,1.768h1Zm4.025,5.837c1.686,0,2.821-1.28,2.821-3.21,0-1.946-1.135-3.227-2.821-3.227s-2.822,1.28-2.822,3.227C86.27,43.541,87.4,44.821,89.092,44.821Zm0-.86c-1.281,0-1.865-1.1-1.865-2.35s.584-2.368,1.865-2.368,1.865,1.119,1.865,2.368S90.373,43.961,89.092,43.961Zm9.15-5.5H97.2l-1.718,4.962h-.065L93.7,38.465H92.664l2.3,6.226h.973l2.3-6.226ZM99.5,44.691h.957V38.465H99.5Zm.486-7.264a.65.65,0,1,0-.681-.648A.668.668,0,0,0,99.991,37.427Zm4.574,7.394a1.927,1.927,0,0,0,1.816-1.086h.114v.956h.924v-8.3h-.957v3.065h-.081a1.9,1.9,0,0,0-1.8-1.07c-1.573,0-2.66,1.248-2.66,3.21,0,1.979,1.087,3.227,2.644,3.227Zm.13-.86c-1.2,0-1.816-1.053-1.816-2.383,0-1.313.6-2.335,1.816-2.335,1.167,0,1.783.94,1.783,2.335s-.632,2.384-1.783,2.384Zm8.176-3.275h-3.632v.892h3.632v-.892Zm4.586-4.3h-1l-2.076,1.379v1.021l2.027-1.346h.049v7.248h1v-8.3Zm5.031-.113a2.671,2.671,0,0,0-2.773,2.773,2.644,2.644,0,0,0,2.61,2.756,2.42,2.42,0,0,0,2.044-1.1h.064c0,2.043-.794,3.21-2.075,3.21a1.565,1.565,0,0,1-1.589-1.313h-.989a2.49,2.49,0,0,0,2.578,2.205c1.865,0,3.016-1.654,3.016-4.6,0-3.049-1.524-3.908-2.886-3.924Zm0,.892a1.84,1.84,0,0,1,1.8,1.864,1.882,1.882,0,0,1-1.832,1.881,1.784,1.784,0,0,1-1.767-1.864,1.825,1.825,0,0,1,1.8-1.881ZM19.1,21.808a8,8,0,0,1-2.61,5.523A8.918,8.918,0,0,1,10.439,29.3a8.688,8.688,0,0,1-4.658-1.245,8.282,8.282,0,0,1-3.1-3.566,12.819,12.819,0,0,1-1.138-5.356V17.074a12.939,12.939,0,0,1,1.107-5.508A8.369,8.369,0,0,1,5.827,7.894,8.9,8.9,0,0,1,10.621,6.6a8.523,8.523,0,0,1,5.888,1.988A8.3,8.3,0,0,1,19.1,14.206H15.28a5.4,5.4,0,0,0-1.4-3.43,4.546,4.546,0,0,0-3.263-1.061,4.5,4.5,0,0,0-3.854,1.836A9.131,9.131,0,0,0,5.4,16.907v1.957a9.743,9.743,0,0,0,1.274,5.463,4.275,4.275,0,0,0,3.763,1.881,4.971,4.971,0,0,0,3.4-1.016,5.3,5.3,0,0,0,1.44-3.384ZM50.075,21.1H42.109V18.12h7.966v2.974Zm20.1,2.443,3.4-16.63h3.809L72.288,29H68.616l-4.2-16.13L60.12,29H56.433l-5.1-22.092h3.808l3.43,16.6,4.218-16.6h3.216l4.173,16.63ZM83.624,29H79.8V6.908h3.823Zm21.623,0h-3.839L91.561,13.326V29h-3.84V6.908h3.84l9.878,15.734V6.908h3.808Z" transform="translate(917.757 10.62)" fill="#fff"/>
    <path id="Path_2" data-name="Path 2" d="M39.625,21.247a8,8,0,1,1-8-8A8,8,0,0,1,39.625,21.247Z" transform="translate(917.875 10.478)" fill="#fcbf02" stroke="#fff" stroke-width="0.634"/>
    <g id="Group_3" data-name="Group 3" transform="translate(695 -32.775)">
      <g id="Group_2" data-name="Group 2" transform="translate(250 60)">
        <path id="Path_3" data-name="Path 3" d="M30.677,16.084h2v9h-2Z" transform="translate(-27.177 -16.084)" fill="#fff"/>
        <path id="Path_4" data-name="Path 4" d="M35.735,19.71v2h-9v-2Z" transform="translate(-26.735 -16.21)" fill="#fff"/>
      </g>
    </g>
  </g>
</svg>
