<svg id="logo" xmlns="http://www.w3.org/2000/svg" width="180.26" height="52.027" viewBox="0 0 180.26 52.027">
  <g id="Group_528" data-name="Group 528" transform="translate(0 0)">
    <g id="Group_527" data-name="Group 527">
      <path id="Path_917" data-name="Path 917" d="M87.605,38.014a10.18,10.18,0,0,0,7.644-3.135,11.374,11.374,0,0,0,3.03-8.143V14.523A2.408,2.408,0,0,0,95.848,12a2.466,2.466,0,0,0-2.4,2.521V26.916c0,3.855-2.4,6.342-5.812,6.342s-5.814-2.487-5.814-6.342V14.523A2.381,2.381,0,0,0,79.431,12,2.5,2.5,0,0,0,77,14.521V26.736a11.352,11.352,0,0,0,2.995,8.143A10.1,10.1,0,0,0,87.6,38.014Zm41.626,0a2.444,2.444,0,0,0,2.487-2.692,2.027,2.027,0,0,0-.035-.51L129.2,16.366c-.414-2.911-2.038-4.366-4.249-4.366-2.384,0-3.869,1.419-4.422,4.256l-2.971,15.866c-.033.181-.137.253-.24.253a.268.268,0,0,1-.277-.253l-3.006-15.863Q113.2,12,109.576,12c-2.212,0-3.835,1.454-4.249,4.366l-2.453,18.482a2.026,2.026,0,0,0-.035.51,2.427,2.427,0,0,0,2.453,2.656,2.255,2.255,0,0,0,2.348-2l1.97-18.3c0-.183.068-.255.207-.255a.255.255,0,0,1,.241.219l3.282,16.445c.8,4.948,7.082,4.948,7.876,0l3.247-16.445a.225.225,0,0,1,.45,0l2,18.3a2.248,2.248,0,0,0,2.315,2.037Zm7.873,0a2.456,2.456,0,0,0,2.241-1.591l1.926-5.826h9.77l1.926,5.826a2.28,2.28,0,0,0,2.206,1.555,2.443,2.443,0,0,0,2.381-2.533,1.954,1.954,0,0,0-.14-.831l-6.583-19.1A4.618,4.618,0,0,0,146.175,12a4.758,4.758,0,0,0-4.622,3.508l-6.654,19.1a2.253,2.253,0,0,0-.14.87,2.414,2.414,0,0,0,2.347,2.532Zm12.853-12.241h-7.6l3.179-8.709a.622.622,0,0,1,.659-.474.607.607,0,0,1,.62.474Zm14.57,12.241a2.408,2.408,0,0,0,2.341-2.58V24.716c0-2.8-.035-4.832-.071-6.1h.071l9.573,17.112a3.8,3.8,0,0,0,3.5,2.217,3.534,3.534,0,0,0,3.459-3.815V14.543A2.424,2.424,0,0,0,181.021,12a2.467,2.467,0,0,0-2.376,2.543V25.224c0,1.418.035,3.343.1,5.74h-.069l-9.33-16.749a3.752,3.752,0,0,0-3.423-2.144c-2.272,0-3.809,1.708-3.809,4.142V35.434a2.531,2.531,0,0,0,2.411,2.58Zm34.445,0a10.494,10.494,0,0,0,7.32-2.608,8.485,8.485,0,0,0,2.943-6.647V26.794a3.184,3.184,0,0,0-3.374-3.322h-4.7a2.309,2.309,0,0,0-2.369,2.321,2.377,2.377,0,0,0,2.369,2.323h3.228v.858c0,2.537-2.009,4.5-5.453,4.5-3.338,0-5.563-2.465-5.956-6.074a24.627,24.627,0,0,1,0-4.61c.395-3.751,2.512-6.146,5.956-6.146a5.7,5.7,0,0,1,5.239,3,2.334,2.334,0,0,0,4.342-1.178,2.665,2.665,0,0,0-.395-1.43A10.081,10.081,0,0,0,198.937,12a10.419,10.419,0,0,0-7.5,2.895,11.2,11.2,0,0,0-3.372,7.289,37.394,37.394,0,0,0,0,5.682,11.032,11.032,0,0,0,3.372,7.253,10.448,10.448,0,0,0,7.536,2.895Z" transform="translate(-28.975 1.34)" fill="#2755a3" fill-rule="evenodd"/>
      <g id="Group_525" data-name="Group 525">
        <path id="Path_918" data-name="Path 918" d="M22.254,0H8.095A8.194,8.194,0,0,0,2.377,2.305,7.708,7.708,0,0,0,0,7.851V33.237c0,1.786,1.857,1.463,3.027,1.35L3.082,7.851A4.777,4.777,0,0,1,4.554,4.418,5.077,5.077,0,0,1,8.094,2.991H22.253a5.079,5.079,0,0,1,3.539,1.427,4.777,4.777,0,0,1,1.473,3.432l0,20.912c1.191.028,3.08.287,3.08-1.458V7.851a7.712,7.712,0,0,0-2.376-5.546A8.2,8.2,0,0,0,22.254,0" fill="#2755a3" fill-rule="evenodd"/>
        <path id="Path_919" data-name="Path 919" d="M2,34.065a2.173,2.173,0,0,1,2.375,1.9A10.5,10.5,0,0,0,5.624,39.6a2.064,2.064,0,0,0,2.589.822c.982-.48,1.17-2.341,1.187-3.551v-16.1a2.466,2.466,0,0,1,4.927,0V34.291h.807V25.854a2.437,2.437,0,0,1,4.869,0v8.436h1.033V27.967a2.193,2.193,0,0,1,4.381,0v6.323h.728V31.234a2.1,2.1,0,0,1,4.2,0v6.419a8.948,8.948,0,0,1-.027.942c-1.037,6.618-7.439,9.25-9.6,9.65a29.417,29.417,0,0,1-5.337.524,16.293,16.293,0,0,1-9.8-2.853,14.25,14.25,0,0,1-5.578-9.6A2.119,2.119,0,0,1,2,34.065m9.925-17.812A3.252,3.252,0,1,0,8.671,13a3.258,3.258,0,0,0,3.252,3.251" transform="translate(0 3.257)" fill="#f47216" fill-rule="evenodd"/>
        <path id="Path_920" data-name="Path 920" d="M16.3,5.418a1.061,1.061,0,0,0,1.037-1.085A1.061,1.061,0,0,0,16.3,3.25H7.538A1.062,1.062,0,0,0,6.5,4.335,1.062,1.062,0,0,0,7.538,5.418H16.3Z" transform="translate(2.171 1.086)" fill="#2755a3" fill-rule="evenodd"/>
      </g>
    </g>
  </g>
</svg>
