<svg id="verified" xmlns="http://www.w3.org/2000/svg" width="39.6" height="39.6" viewBox="0 0 39.6 39.6">
  <path id="Path_55334" data-name="Path 55334" d="M203.708,217.971a1.414,1.414,0,0,0-2,0l-3.666,3.666-1-1a1.414,1.414,0,0,0-2,0h0a1.414,1.414,0,0,0,0,2l2,2a1.414,1.414,0,0,0,2,0l4.666-4.666a1.414,1.414,0,0,0,0-2Z" transform="translate(-179.576 -200.73)" fill="#046b6b"/>
  <path id="Path_55335" data-name="Path 55335" d="M19.8,0A19.8,19.8,0,1,0,39.6,19.8,19.8,19.8,0,0,0,19.8,0ZM30.169,23.183a5.656,5.656,0,0,1-2.3,4.553L22.352,31.8a4.3,4.3,0,0,1-5.1,0l-5.516-4.064a5.656,5.656,0,0,1-2.3-4.553V13.408a2.828,2.828,0,0,1,1.976-2.7l5.63-1.778a9.172,9.172,0,0,1,5.525,0l5.63,1.778a2.828,2.828,0,0,1,1.976,2.7v9.775Z" fill="#046b6b"/>
</svg>
